<svg xmlns="http://www.w3.org/2000/svg" xmlns:xlink="http://www.w3.org/1999/xlink" id="Layer_1" width="32" height="32" x="0" y="0" baseProfile="tiny" version="1.1" viewBox="0 0 32 32" xml:space="preserve"><path d="M19.641,3.26c-0.851-0.245-1.736,0.25-1.979,1.1l-6.4,22.4c-0.245,0.85,0.25,1.735,1.1,1.98c0.85,0.244,1.735-0.25,1.98-1.1	l6.4-22.4C20.984,4.39,20.49,3.505,19.641,3.26z M23.67,9.265c-0.625,0.625-0.625,1.64,0,2.265L28.135,16l-4.47,4.471	c-0.625,0.625-0.625,1.639,0,2.264s1.64,0.625,2.265,0l5.6-5.6c0.625-0.625,0.625-1.64,0-2.265l-5.6-5.6	c-0.625-0.625-1.64-0.625-2.265,0L23.67,9.265z M8.335,9.265c-0.625-0.625-1.64-0.625-2.265,0l-5.6,5.6	c-0.625,0.625-0.625,1.64,0,2.265l5.6,5.601c0.625,0.625,1.64,0.625,2.265,0s0.625-1.641,0-2.266L3.865,16l4.47-4.47	C8.96,10.905,8.96,9.89,8.335,9.265z"/></svg>