<svg xmlns="http://www.w3.org/2000/svg" width="32" height="32" x="0" y="0" enable-background="new 0 0 32 32" version="1.1" viewBox="0 0 32 32" xml:space="preserve"><g id="Layer_1"><polyline fill="none" stroke="#52A6AF" stroke-linecap="round" stroke-linejoin="round" stroke-miterlimit="10" stroke-width="3" points="26 26 6 26.033 6 6"/><polyline fill="none" stroke="#68C9CE" stroke-linecap="round" stroke-linejoin="round" stroke-miterlimit="10" stroke-width="3" points="10.999 21.616 17 15.616 20 18.616 26 12.616"/></g><g id="Layer_2" display="none"><g display="inline"><path d="M12.5,19.616v4h-4v-4H12.5 M13.5,18.616h-6v6h6V18.616L13.5,18.616z"/></g><g display="inline"><path d="M21,13.033v4h-4v-4H21 M22,12.033h-6v6h6V12.033L22,12.033z"/></g><g display="inline"><path d="M27,19.033v4h-4v-4H27 M28,18.033h-6v6h6V18.033L28,18.033z"/></g><g display="inline"><path d="M27,7.033v4h-4v-4H27 M28,6.033h-6v6h6V6.033L28,6.033z"/></g></g></svg>